<svg xmlns="http://www.w3.org/2000/svg" xmlns:xlink="http://www.w3.org/1999/xlink" height="800px" width="800px" id="Layer_1" viewBox="0 0 512 512" xml:space="preserve"><path style="fill:#EA3F31;" d="M420.301,207.636l-21.752-94.287C383.572,48.499,325.339,0,256,0l77.07,286.945h24.205 c35.739,0,64.703-28.965,64.703-64.703C421.978,217.212,421.382,212.328,420.301,207.636z"></path><path style="fill:#F16C60;" d="M381.041,207.636c0.821,4.692,1.272,9.576,1.272,14.606c0,35.739-22.044,64.703-49.242,64.703 H154.725c-35.739,0-64.703-28.965-64.703-64.703c0-5.03,0.596-9.914,1.677-14.606l21.752-94.287C128.428,48.499,186.661,0,256,0 c52.775,0,97.077,48.499,108.477,113.349L381.041,207.636z"></path><path style="fill:#FFC5BF;" d="M315.673,50.874c-3.353,2.667-6.774,5.266-10.251,7.776L256,286.945 c62.149,0,112.527-50.379,112.527-112.527v-28.132C368.527,106.068,347.417,70.769,315.673,50.874z"></path><path style="fill:#FFD8D4;" d="M334.769,146.286v28.132c0,62.149-35.266,112.527-78.769,112.527 c-62.149,0-112.527-50.379-112.527-112.527v-28.132c0-11.793,1.812-23.169,5.176-33.848c58.458-2.037,112.426-21.684,156.773-53.788 C323.314,79.276,334.769,110.873,334.769,146.286z"></path><g>	<path style="fill:#81433D;" d="M226.18,160.352c-3.675,0-6.801-2.348-7.959-5.626h-14.546c-4.661,0-8.44-3.779-8.44-8.44  s3.779-8.44,8.44-8.44h22.506c4.661,0,8.44,3.779,8.44,8.44v5.626C234.62,156.573,230.841,160.352,226.18,160.352z"></path>	<path style="fill:#81433D;" d="M285.82,160.352c-4.661,0-8.44-3.779-8.44-8.44v-5.626c0-4.661,3.779-8.44,8.44-8.44h22.505  c4.661,0,8.44,3.779,8.44,8.44s-3.779,8.44-8.44,8.44h-14.546C292.621,158.003,289.495,160.352,285.82,160.352z"></path></g><path style="fill:#EA3F31;" d="M256,218.466c-11.882,0-22.539-7.521-26.519-18.717c-1.561-4.392,0.734-9.217,5.126-10.779 c4.39-1.56,9.217,0.734,10.779,5.126c1.593,4.481,5.859,7.491,10.615,7.491c4.755,0,9.022-3.01,10.615-7.491 c1.562-4.392,6.388-6.684,10.779-5.126c4.392,1.562,6.686,6.387,5.126,10.779C278.539,210.945,267.882,218.466,256,218.466z"></path><path style="fill:#708320;" d="M372.41,360.2h-31.496L413.538,512h33.758C447.297,450.155,417.95,395.163,372.41,360.2z"></path><path style="fill:#8A9D29;" d="M363.419,372.061L139.59,360.2C94.05,395.163,64.703,450.155,64.703,512h348.835 C413.538,456.76,394.251,406.978,363.419,372.061z"></path><path style="fill:#3C4F0D;" d="M343.963,342.084h-27.806v29.977h47.262c3.196-3.792,6.2-7.742,8.991-11.86 C363.509,353.359,354,347.294,343.963,342.084z"></path><path style="fill:#566916;" d="M338.64,349.116l-170.603-7.033c-10.037,5.21-19.546,11.275-28.447,18.117 c25.33,37.258,68.057,61.778,116.41,61.778c43.019,0,81.582-19.411,107.419-49.917C355.823,363.464,347.53,355.767,338.64,349.116z"></path><path style="fill:#FFC5BF;" d="M258.037,320.715l80.603,28.402c1.879-2.273,3.646-4.614,5.323-7.033 C318.194,328.715,288.993,321.041,258.037,320.715z"></path><path style="fill:#FFD8D4;" d="M258.037,320.715c29.538,0.461,57.119,10.791,80.603,28.402 c-19.591,23.867-49.332,39.103-82.64,39.103c-36.47,0-68.676-18.263-87.963-46.136c26.331-13.661,56.253-21.38,87.963-21.38 C256.675,320.703,257.362,320.703,258.037,320.715z"></path><g>	<circle style="fill:#708320;" cx="164.909" cy="469.802" r="8.44"></circle>	<circle style="fill:#708320;" cx="131.151" cy="436.044" r="8.44"></circle></g></svg>